<?xml version="1.0" standalone="no"?>
<!DOCTYPE svg PUBLIC "-//W3C//DTD SVG 20010904//EN"
 "http://www.w3.org/TR/2001/REC-SVG-20010904/DTD/svg10.dtd">
<svg version="1.0" xmlns="http://www.w3.org/2000/svg"
 width="72.000000pt" height="72.000000pt" viewBox="0 0 72.000000 72.000000"
 preserveAspectRatio="xMidYMid meet">
<metadata>
Created by potrace 1.10, written by Peter Selinger 2001-2011
</metadata>
<g transform="translate(0.000000,72.000000) scale(0.100000,-0.100000)"
fill="#000000" stroke="none">
<path d="M325 636 c-3 -9 -7 -23 -10 -31 -4 -12 -28 -15 -135 -15 -108 0 -130
-3 -130 -15 0 -12 24 -15 133 -17 l132 -3 0 -25 0 -25 -132 -3 c-108 -2 -133
-5 -133 -17 0 -12 25 -15 133 -17 l132 -3 0 -25 0 -25 -132 -3 c-108 -2 -133
-5 -133 -17 0 -12 25 -15 133 -17 l132 -3 0 -25 0 -25 -132 -3 c-108 -2 -133
-5 -133 -17 0 -12 25 -15 133 -17 l132 -3 0 -25 0 -25 -132 -3 c-108 -2 -133
-5 -133 -17 0 -12 25 -15 133 -17 l132 -3 0 -25 0 -25 -132 -3 c-108 -2 -133
-5 -133 -17 0 -12 25 -15 132 -17 132 -3 132 -3 138 -28 4 -18 13 -25 30 -25
17 0 26 7 30 25 6 25 6 25 138 28 107 2 132 5 132 17 0 12 -25 15 -132 17
l-133 3 0 25 0 25 133 3 c107 2 132 5 132 17 0 12 -25 15 -132 17 l-133 3 0
25 0 25 133 3 c107 2 132 5 132 17 0 12 -25 15 -132 17 l-133 3 0 25 0 25 133
3 c107 2 132 5 132 17 0 12 -25 15 -132 17 l-133 3 0 25 0 25 133 3 c107 2
132 5 132 17 0 12 -25 15 -132 17 l-133 3 0 25 0 25 133 3 c107 2 132 5 132
17 0 12 -25 15 -132 17 -132 3 -132 3 -138 28 -7 29 -47 41 -55 16z"/>
</g>
</svg>
