<?xml version="1.0" standalone="no"?>
<!DOCTYPE svg PUBLIC "-//W3C//DTD SVG 20010904//EN"
 "http://www.w3.org/TR/2001/REC-SVG-20010904/DTD/svg10.dtd">
<svg version="1.0" xmlns="http://www.w3.org/2000/svg"
 width="24.000000pt" height="24.000000pt" viewBox="0 0 24.000000 24.000000"
 preserveAspectRatio="xMidYMid meet">

<g transform="translate(0.000000,24.000000) scale(0.100000,-0.100000)"
fill="#000000" stroke="none">
<path d="M110 211 c0 -6 -21 -12 -47 -14 l-48 -3 48 -2 c26 -1 47 -6 47 -11 0
-6 -21 -12 -47 -14 l-48 -3 48 -2 c26 -1 47 -6 47 -11 0 -6 -21 -12 -47 -14
l-48 -3 48 -2 c26 -1 47 -6 47 -11 0 -6 -21 -12 -47 -14 l-48 -3 48 -2 c61 -3
61 -20 0 -25 l-48 -3 48 -2 c61 -3 61 -21 0 -24 l-48 -1 45 -4 c24 -3 48 -10
52 -16 6 -9 10 -9 16 0 4 6 28 13 52 16 l45 4 -47 1 c-27 1 -48 6 -48 11 0 6
21 12 48 14 l47 3 -47 2 c-27 1 -48 6 -48 11 0 6 21 12 48 14 l47 3 -47 2
c-27 1 -48 6 -48 11 0 6 21 12 48 14 l47 3 -47 2 c-27 1 -48 6 -48 11 0 6 21
12 48 14 l47 3 -47 2 c-27 1 -48 6 -48 11 0 6 21 12 48 14 l47 3 -47 2 c-27 1
-48 7 -48 12 0 6 -4 10 -10 10 -5 0 -10 -4 -10 -9z"/>
</g>
</svg>
