<svg id="em8VGhMczbf1" xmlns="http://www.w3.org/2000/svg" xmlns:xlink="http://www.w3.org/1999/xlink" viewBox="0 0 28 28" shape-rendering="geometricPrecision" text-rendering="geometricPrecision"><path d="M2.509434,2.74717h22.611321" transform="matrix(1.084114 0 0 1-.977132 0.947169)" fill="none" stroke="#000" stroke-width="0.75"/><path d="M2.509434,2.74717h22.611321" transform="matrix(1.084114 0 0 1-.977132 4.947169)" fill="none" stroke="#000" stroke-width="0.75"/><path d="M2.509434,2.74717h22.611321" transform="matrix(1.084114 0 0 1-.977132 8.947169)" fill="none" stroke="#000" stroke-width="0.75"/><path d="M2.509434,2.74717h22.611321" transform="matrix(1.084114 0 0 1-.977132 12.947169)" fill="none" stroke="#000" stroke-width="0.75"/><path d="M2.509434,2.74717h22.611321" transform="matrix(1.084114 0 0 1-.977132 16.947169)" fill="none" stroke="#000" stroke-width="0.75"/><path d="M2.509434,2.74717h22.611321" transform="matrix(1.084114 0 0 1-.977132 20.947169)" fill="none" stroke="#000" stroke-width="0.75"/><ellipse rx="5.757547" ry="5.757547" transform="translate(19.757553 19.757547)"/><rect width="1.751448" height="9.348692" rx="0" ry="0" transform="matrix(.707107 0.707107-.614657 0.614658 22.011444 16.265195)" fill="#fff" stroke-width="0"/><rect width="1.751448" height="9.348692" rx="0" ry="0" transform="matrix(.707107-.707107 0.614658 0.614658 16.265201 17.503656)" fill="#fff" stroke-width="0"/></svg>