<?xml version="1.0" standalone="no"?>
<!DOCTYPE svg PUBLIC "-//W3C//DTD SVG 20010904//EN"
 "http://www.w3.org/TR/2001/REC-SVG-20010904/DTD/svg10.dtd">
<svg version="1.0" xmlns="http://www.w3.org/2000/svg"
 width="24.000000pt" height="24.000000pt" viewBox="0 0 24.000000 24.000000"
 preserveAspectRatio="xMidYMid meet">

<g transform="translate(0.000000,24.000000) scale(0.100000,-0.100000)"
fill="#000000" stroke="none">
<path d="M68 193 c28 -2 76 -2 105 0 28 2 5 3 -53 3 -58 0 -81 -1 -52 -3z"/>
<path d="M68 163 c28 -2 76 -2 105 0 28 2 5 3 -53 3 -58 0 -81 -1 -52 -3z"/>
<path d="M68 133 c28 -2 76 -2 105 0 28 2 5 3 -53 3 -58 0 -81 -1 -52 -3z"/>
<path d="M75 100 c65 -6 58 -17 -15 -23 l-45 -4 53 -1 c68 -3 68 -20 -1 -25
l-52 -3 57 -2 c31 -1 60 -6 63 -12 8 -14 47 -12 65 3 16 13 19 35 7 54 -4 6
-1 14 5 16 7 3 -34 5 -92 5 -88 -1 -96 -2 -45 -8z m113 -31 c15 -1 15 -2 0 -6
-10 -2 -19 -12 -19 -21 -1 -15 -2 -15 -6 1 -2 9 -12 18 -21 18 -15 1 -15 2 1
6 9 2 18 12 18 21 1 15 2 15 6 0 2 -10 12 -19 21 -19z"/>
</g>
</svg>
