<?xml version="1.0" standalone="no"?>
<!DOCTYPE svg PUBLIC "-//W3C//DTD SVG 20010904//EN"
 "http://www.w3.org/TR/2001/REC-SVG-20010904/DTD/svg10.dtd">
<svg version="1.0" xmlns="http://www.w3.org/2000/svg"
 width="72.000000pt" height="72.000000pt" viewBox="0 0 72.000000 72.000000"
 preserveAspectRatio="xMidYMid meet">
<metadata>
Created by potrace 1.10, written by Peter Selinger 2001-2011
</metadata>
<g transform="translate(0.000000,72.000000) scale(0.100000,-0.100000)"
fill="#000000" stroke="none">
<path d="M50 575 c0 -13 40 -15 300 -15 260 0 300 2 300 15 0 13 -40 15 -300
15 -260 0 -300 -2 -300 -15z"/>
<path d="M50 485 c0 -13 40 -15 300 -15 260 0 300 2 300 15 0 13 -40 15 -300
15 -260 0 -300 -2 -300 -15z"/>
<path d="M50 395 c0 -13 40 -15 300 -15 260 0 300 2 300 15 0 13 -40 15 -300
15 -260 0 -300 -2 -300 -15z"/>
<path d="M50 305 c0 -13 25 -15 165 -15 172 0 186 -4 143 -41 -20 -16 -41 -18
-165 -19 -119 0 -143 -2 -143 -15 0 -12 25 -15 148 -17 l147 -3 0 -25 0 -25
-147 -3 c-123 -2 -148 -5 -148 -17 0 -13 26 -15 158 -15 l158 0 29 -30 c26
-27 35 -30 90 -30 55 0 64 3 90 30 16 16 39 30 52 30 26 0 32 25 8 34 -8 3
-15 15 -15 26 0 11 7 23 15 26 23 9 18 27 -15 49 -39 26 -39 45 0 45 20 0 30
5 30 15 0 13 -40 15 -300 15 -260 0 -300 -2 -300 -15z m400 -65 c11 -11 20
-24 20 -30 0 -5 7 -10 15 -10 8 0 15 5 15 10 0 6 9 19 20 30 22 22 40 26 40
10 0 -5 -9 -19 -20 -30 -11 -11 -24 -20 -30 -20 -5 0 -10 -7 -10 -15 0 -8 5
-15 10 -15 13 0 50 -37 50 -50 0 -16 -18 -12 -40 10 -11 11 -20 25 -20 30 0 6
-7 10 -15 10 -8 0 -15 -4 -15 -10 0 -13 -37 -50 -50 -50 -5 0 -10 5 -10 10 0
13 37 50 50 50 6 0 10 7 10 15 0 8 -4 15 -10 15 -5 0 -19 9 -30 20 -11 11 -20
25 -20 30 0 16 18 12 40 -10z"/>
</g>
</svg>
