<svg id="eEXynpw2Njh1" xmlns="http://www.w3.org/2000/svg" xmlns:xlink="http://www.w3.org/1999/xlink" viewBox="0 0 28 28" shape-rendering="geometricPrecision" text-rendering="geometricPrecision"><path d="M2.509434,2.74717h22.611321" transform="matrix(1.084114 0 0 1-.977132 0.947169)" fill="none" stroke="#000" stroke-width="0.75"/><path d="M2.509434,2.74717h22.611321" transform="matrix(1.084114 0 0 1-.977132 4.947169)" fill="none" stroke="#000" stroke-width="0.75"/><path d="M2.509434,2.74717h22.611321" transform="matrix(1.084114 0 0 1-.977132 8.947169)" fill="none" stroke="#000" stroke-width="0.75"/><path d="M2.509434,2.74717h22.611321" transform="matrix(1.084114 0 0 1-.977132 12.947169)" fill="none" stroke="#000" stroke-width="0.75"/><path d="M2.509434,2.74717h22.611321" transform="matrix(1.084114 0 0 1-.977132 16.947169)" fill="none" stroke="#000" stroke-width="0.75"/><path d="M2.509434,2.74717h22.611321" transform="matrix(1.084114 0 0 1-.977132 20.947169)" fill="none" stroke="#000" stroke-width="0.75"/><path d="M2.509434,2.74717h22.611321" transform="matrix(0-1.084114 1 0 11.677058 28.977138)" fill="none" stroke="#000" stroke-width="2"/></svg>