<?xml version="1.0" standalone="no"?>
<!DOCTYPE svg PUBLIC "-//W3C//DTD SVG 20010904//EN"
 "http://www.w3.org/TR/2001/REC-SVG-20010904/DTD/svg10.dtd">
<svg version="1.0" xmlns="http://www.w3.org/2000/svg"
 width="72.000000pt" height="72.000000pt" viewBox="0 0 72.000000 72.000000"
 preserveAspectRatio="xMidYMid meet">
<metadata>
Created by potrace 1.10, written by Peter Selinger 2001-2011
</metadata>
<g transform="translate(0.000000,72.000000) scale(0.100000,-0.100000)"
fill="#000000" stroke="none">
<path d="M50 575 c0 -13 40 -15 300 -15 260 0 300 2 300 15 0 13 -40 15 -300
15 -260 0 -300 -2 -300 -15z"/>
<path d="M50 485 c0 -13 40 -15 300 -15 260 0 300 2 300 15 0 13 -40 15 -300
15 -260 0 -300 -2 -300 -15z"/>
<path d="M50 395 c0 -13 40 -15 300 -15 260 0 300 2 300 15 0 13 -40 15 -300
15 -260 0 -300 -2 -300 -15z"/>
<path d="M440 335 c-10 -12 -46 -15 -201 -15 -160 0 -189 -2 -189 -15 0 -12
27 -15 162 -17 l163 -3 0 -25 0 -25 -163 -3 c-134 -2 -162 -5 -162 -17 0 -12
28 -15 162 -17 l163 -3 0 -25 0 -25 -163 -3 c-135 -2 -162 -5 -162 -17 0 -13
29 -15 189 -15 155 0 191 -3 201 -15 17 -20 103 -20 120 0 7 9 29 15 51 15 40
0 55 22 24 34 -8 3 -15 15 -15 26 0 11 7 23 15 26 8 4 15 12 15 19 0 7 -7 15
-15 19 -8 3 -15 15 -15 26 0 11 7 23 15 26 31 12 16 34 -24 34 -22 0 -44 6
-51 15 -8 9 -30 15 -60 15 -30 0 -52 -6 -60 -15z m150 -120 c0 -12 -17 -15
-90 -15 -73 0 -90 3 -90 15 0 12 17 15 90 15 73 0 90 -3 90 -15z"/>
</g>
</svg>
