<svg id="eFvwVNzWUBj1" xmlns="http://www.w3.org/2000/svg" xmlns:xlink="http://www.w3.org/1999/xlink" viewBox="0 0 28 28" shape-rendering="geometricPrecision" text-rendering="geometricPrecision"><rect width="24.513249" height="11.113662" rx="1" ry="1" transform="matrix(1 0 0 1.419871 2.167605 1.95546)" fill="none" stroke="#000"/><g transform="translate(-5.333323 0.848413)"><ellipse rx="5.757547" ry="5.757547" transform="translate(19.757553 19.757547)"/><rect width="1.751448" height="9.348692" rx="0" ry="0" transform="matrix(0-1 0.869257 0 15.694345 20.633271)" fill="#fff" stroke-width="0"/><rect width="1.751448" height="9.348692" rx="0" ry="0" transform="matrix(1 0 0 0.869257 18.881829 15.694339)" fill="#fff" stroke-width="0"/></g><path d="M2.476924,4.655727h24.179731" transform="translate(.024199 4.189716)" fill="none" stroke="#000" stroke-width="0.5"/><path d="M2.476924,4.655727h24.179731" transform="translate(-.142559 1.575993)" fill="none" stroke="#000" stroke-width="0.5"/><path d="M2.476924,4.655727h24.179731" transform="translate(-.142559-.808077)" fill="none" stroke="#000" stroke-width="0.5"/><path d="M2.476924,4.655727h24.179731" transform="translate(-.14256 6.837535)" fill="none" stroke="#000" stroke-width="0.5"/><path d="M2.476924,4.655727h24.179731" transform="translate(-.142559 9.192686)" fill="none" stroke="#000" stroke-width="0.5"/><path d="M2.476924,4.655727h24.179731" transform="translate(-.142559 11.192686)" fill="none" stroke="#000" stroke-width="0.5"/></svg>