<svg id="e42j7sJ8Mwd1" xmlns="http://www.w3.org/2000/svg" xmlns:xlink="http://www.w3.org/1999/xlink" viewBox="0 0 28 28" shape-rendering="geometricPrecision" text-rendering="geometricPrecision"><g transform="matrix(-1 0 0-1 27.826857 28)"><path d="M14,3.42568c5.84003,0,10.57432,4.73428,10.57432,10.57432s-4.73428,10.57432-10.57432,10.57432c-4.99709,0-9.1846-3.46624-10.28933-8.12551l2.22925.71965C7.20455,20.38294,10.33657,22.65817,14,22.65817c4.78177,0,8.65817-3.87639,8.65817-8.65817s-3.87639-8.65817-8.65817-8.65817c-3.50159,0-6.51769,2.07865-7.88166,5.06931L4.28437,9.8191C5.90487,6.05839,9.64498,3.42568,14,3.42568Z" stroke-width="0"/><polygon points="0,-3.629745 3.143451,1.814872 -3.143451,1.814872 0,-3.629745" transform="translate(5.082646 15.918589)" stroke-width="0"/></g></svg>